<svg width="222" height="206" viewBox="0 0 222 206" fill="none" xmlns="http://www.w3.org/2000/svg">
<path d="M35 171.862L46 100.487M57 29.1111L46 100.487M46 100.487L77.487 78.2437C80.993 75.767 83.2699 71.9068 83.7415 67.6402L88 29.1111M46 100.487H68C76.2843 100.487 83 107.202 83 115.487V171.862M112 29.1111V171.862M140 100.487V44.1111C140 35.8268 146.716 29.1111 155 29.1111V29.1111C163.284 29.1111 170 35.8268 170 44.1111V100.487M140 100.487V156.862C140 165.147 146.716 171.862 155 171.862H171.457C180.32 171.862 187.25 164.219 186.385 155.398L182.074 111.434C181.464 105.223 176.241 100.487 170 100.487V100.487M140 100.487H170M112 198H199.075C208.074 198 215.047 190.131 213.966 181.197L194.598 21.1974C193.686 13.6653 187.293 8 179.706 8H47.8842C40.4739 8 34.1741 13.4113 33.056 20.7368L8.63492 180.737C7.24888 189.818 14.2771 198 23.4632 198H112Z" stroke="#FF7E30" stroke-width="15" stroke-linecap="round"/>
</svg>
